<?xml version="1.0" encoding="UTF-8"?><svg id="b" xmlns="http://www.w3.org/2000/svg" xmlns:xlink="http://www.w3.org/1999/xlink" viewBox="0 0 474.05 191.41"><defs><linearGradient id="d" x1="197.24" y1="227.2" x2="230.87" y2="195.04" gradientTransform="translate(-247.18 178.03) rotate(14.08) scale(1.02 -1.03) skewX(1.42)" gradientUnits="userSpaceOnUse"><stop offset="0" stop-color="#191919"/><stop offset=".52" stop-color="#373737"/><stop offset=".87" stop-color="#0a0a0a"/></linearGradient></defs><g id="c"><g><path d="M158.64,116.87h-28.2v-44.4h28.2v9h-21.18l2.7-2.52v11.22h16.38v8.52h-16.38v11.7l-2.7-2.52h21.18v9Z" fill="#1a1a1a"/><path d="M174.72,116.87h-9.24v-45.24h9.24v45.24Z" fill="#1a1a1a"/><path d="M195.6,117.65c-3,0-5.67-.68-8.01-2.04-2.34-1.36-4.18-3.23-5.52-5.61-1.34-2.38-2.01-5.11-2.01-8.19s.65-5.87,1.95-8.25c1.3-2.38,3.11-4.25,5.43-5.61,2.32-1.36,4.98-2.04,7.98-2.04,3.16,0,5.88,.65,8.16,1.95,2.28,1.3,4.04,3.14,5.28,5.52,1.24,2.38,1.86,5.21,1.86,8.49v2.34l-25.8,.12,.12-5.7h16.5c0-1.6-.54-2.87-1.62-3.81-1.08-.94-2.56-1.41-4.44-1.41-1.56,0-2.83,.3-3.81,.9-.98,.6-1.71,1.53-2.19,2.79-.48,1.26-.72,2.87-.72,4.83,0,2.8,.57,4.87,1.71,6.21,1.14,1.34,2.91,2.01,5.31,2.01,1.76,0,3.22-.3,4.38-.9,1.16-.6,1.9-1.44,2.22-2.52h8.46c-.52,3.32-2.16,5.97-4.92,7.95-2.76,1.98-6.2,2.97-10.32,2.97Z" fill="#1a1a1a"/><path d="M214.55,101.75c0-3.08,.66-5.81,1.98-8.19,1.32-2.38,3.13-4.25,5.43-5.61,2.3-1.36,4.95-2.04,7.95-2.04,4.44,0,8.04,1.14,10.8,3.42,2.76,2.28,4.28,5.38,4.56,9.3h-9.3c-.32-1.52-.95-2.64-1.89-3.36-.94-.72-2.21-1.08-3.81-1.08-1.28,0-2.41,.31-3.39,.93-.98,.62-1.73,1.49-2.25,2.61-.52,1.12-.78,2.46-.78,4.02s.25,2.97,.75,4.11c.5,1.14,1.22,2.01,2.16,2.61,.94,.6,2.07,.9,3.39,.9,1.64,0,2.95-.37,3.93-1.11,.98-.74,1.61-1.85,1.89-3.33h9.3c-.2,2.52-.97,4.73-2.31,6.63-1.34,1.9-3.11,3.39-5.31,4.47-2.2,1.08-4.7,1.62-7.5,1.62-3.16,0-5.91-.66-8.25-1.98-2.34-1.32-4.15-3.17-5.43-5.55-1.28-2.38-1.92-5.17-1.92-8.37Z" fill="#1a1a1a"/><path d="M247.49,86.87h20.64v7.68h-20.64v-7.68Zm14.94,30h-9.24v-39.3h9.24v39.3Z" fill="#1a1a1a"/><path d="M292.91,86.87v8.7h-2.94c-2.64,0-4.71,.64-6.21,1.92-1.5,1.28-2.25,3.4-2.25,6.36v13.02h-9.24v-29.94h8.7l.72,6.42h-.84c.4-2,1.31-3.65,2.73-4.95,1.42-1.3,3.35-1.95,5.79-1.95,.56,0,1.13,.03,1.71,.09,.58,.06,1.19,.17,1.83,.33Z" fill="#1a1a1a"/><path d="M302.15,82.19c-1.48,0-2.73-.51-3.75-1.53s-1.53-2.27-1.53-3.75,.51-2.72,1.53-3.72c1.02-1,2.27-1.5,3.75-1.5s2.67,.5,3.69,1.5c1.02,1,1.53,2.24,1.53,3.72s-.51,2.73-1.53,3.75-2.25,1.53-3.69,1.53Zm-4.56,34.68v-30h9.24v30h-9.24Z" fill="#1a1a1a"/><path d="M323.03,116.87h-9.24v-45.24h9.24v26.04l9.72-10.8h11.58l-11.28,11.88,10.92,18.12h-10.68l-6.72-11.22-3.54,3.72v7.5Z" fill="#1a1a1a"/><path d="M371.45,73.49v43.38h-5.88v-43.38h5.88Zm17.04,24.96h-22.62v-5.34h22.62v5.34Zm3.24-19.56h-25.74v-5.4h25.74v5.4Z" fill="#1a1a1a"/><path d="M416.39,87.53h5.58v29.34h-5.04l-.6-4.44c-.84,1.52-2.16,2.76-3.96,3.72-1.8,.96-3.78,1.44-5.94,1.44-3.4,0-6.03-1.07-7.89-3.21-1.86-2.14-2.79-5.01-2.79-8.61v-18.24h5.64v16.38c0,3.12,.63,5.35,1.89,6.69,1.26,1.34,2.97,2.01,5.13,2.01,2.6,0,4.58-.81,5.94-2.43,1.36-1.62,2.04-4.01,2.04-7.17v-15.48Z" fill="#1a1a1a"/><path d="M435.77,116.87h-5.64v-29.34h5.04l.78,5.4-.72-.48c.6-1.64,1.71-3.01,3.33-4.11,1.62-1.1,3.59-1.65,5.91-1.65,2.6,0,4.76,.7,6.48,2.1,1.72,1.4,2.84,3.26,3.36,5.58h-1.02c.4-2.32,1.5-4.18,3.3-5.58,1.8-1.4,4.02-2.1,6.66-2.1,3.36,0,6,.98,7.92,2.94,1.92,1.96,2.88,4.64,2.88,8.04v19.2h-5.52v-17.82c0-2.32-.59-4.11-1.77-5.37-1.18-1.26-2.77-1.89-4.77-1.89-1.4,0-2.63,.31-3.69,.93-1.06,.62-1.89,1.51-2.49,2.67-.6,1.16-.9,2.52-.9,4.08v17.4h-5.58v-17.88c0-2.32-.58-4.09-1.74-5.31-1.16-1.22-2.74-1.83-4.74-1.83-1.4,0-2.63,.31-3.69,.93-1.06,.62-1.89,1.5-2.49,2.64-.6,1.14-.9,2.49-.9,4.05v17.4Z" fill="#1a1a1a"/></g><g><g><path d="M28.24,31.57c-6.9,4.32-11.59,9.23-14.49,12.77,27.83,45.02,55.74,90.18,83.57,135.2,5.5-2.77,11.36-6,17.45-9.76,5.79-3.58,11.06-7.19,15.81-10.7C102.75,114.05,74.84,68.9,47.01,23.88c-4.59,1.02-11.46,3.11-18.78,7.69Zm95.88,125.15c-3.45,2.78-7.46,5.71-12.07,8.6-4.63,2.9-9.04,5.24-13.05,7.14-26.39-42.13-52.78-84.26-79.16-126.39l25.13-15.74,79.16,126.39Z" fill="#1a1a1a"/><path d="M47.19,23.84c-2.41,3.39-6.92,9.17-14.51,13.77-7.64,4.78-14.92,6.38-18.98,6.89L.89,23.8c-2.25-3.59-.07-8.85,4.75-11.88L21.77,1.97c4.83-3.02,10.47-2.5,12.72,1.09l12.7,20.78Z" fill="url(#d)"/></g><path d="M113.43,3.85C106.42,1.53,91.64,.16,91.64,.16c0,0-2.81-.27-5.32,.89-2.86,1.06-4.8,4.18-4.8,4.18L28.39,86.72s-2.42,3.86-.82,5.35c1.21,1.23,5.28,1.66,5.28,1.66,0,0,7.36,.5,14.38,.34,6.49,.14,12.41-.09,13.49,1.79,1.06,1.84-6.94,9.64-15.27,18.13-9.21,9.38-18.9,19.45-18.9,19.45,0,0-1.71,1.99-1.75,2.82,.25,1.92,2.07,2.31,3.07,2.6,3.6,1.37,31.22-.62,30.43,2.69,.98,2.6-7.92,9.96-17.44,19.65-12.22,12.44-26.03,26.43-26.03,26.43,0,0-1.99,2.13-1.93,2.61,.33,1.62,2.24,1.14,2.58,.9,.61-.34,82.72-58.65,82.72-58.65,0,0,2.37-2.45,1.9-4.26-.22-.9-3.15-1-3.15-1l-24.25-.3s-2.38-.16-2.57-1.6,2.21-3.53,2.21-3.53l46.59-40.47s2.6-2.28,2.63-3.08c-.04-1.2-3.7-1.47-3.7-1.47l-32.16-.77s-2.79-.26-3.33-1.11,1.55-3.01,1.55-3.01l53.13-53.59s1.82-1.87,1.93-2.73c.25-1.4-.48-1.91-.48-1.91,0,0-16.82-7.93-25.07-9.82Z" fill="#fff" fill-rule="evenodd"/><path d="M104.71,25.24c-5.38-1.78-16.72-2.83-16.72-2.83,0,0-2.16-.21-4.08,.68-2.19,.81-3.68,3.2-3.68,3.2l-40.77,62.53s-1.86,2.96-.63,4.11c.93,.95,4.05,1.28,4.05,1.28,0,0,5.65,.39,11.03,.26,4.98,.11,9.52-.07,10.35,1.38,.81,1.41-5.32,7.39-11.72,13.91-7.06,7.2-14.5,14.93-14.5,14.93,0,0-1.31,1.53-1.34,2.16,.19,1.47,1.59,1.77,2.36,1.99,2.76,1.05,23.95-.47,23.35,2.07,.75,1.99-6.08,7.64-13.38,15.08-9.37,9.55-19.97,20.28-19.97,20.28,0,0-1.53,1.64-1.48,2,.25,1.24,1.72,.87,1.98,.69,.47-.26,63.47-45,63.47-45,0,0,1.82-1.88,1.46-3.27-.17-.69-2.42-.77-2.42-.77l-18.61-.23s-1.83-.12-1.97-1.23,1.7-2.71,1.7-2.71l35.75-31.05s1.99-1.75,2.02-2.36c-.03-.92-2.84-1.13-2.84-1.13l-24.68-.59s-2.14-.2-2.56-.85,1.19-2.31,1.19-2.31l40.76-41.11s1.4-1.44,1.48-2.09c.19-1.07-.37-1.47-.37-1.47,0,0-12.91-6.08-19.23-7.54Z" fill="#1a1a1a" fill-rule="evenodd"/></g></g></svg>