<?xml version="1.0" encoding="UTF-8"?><svg id="b" xmlns="http://www.w3.org/2000/svg" xmlns:xlink="http://www.w3.org/1999/xlink" viewBox="0 0 130.58 179.54"><defs><linearGradient id="d" x1="235.1" y1="-83.79" x2="268.73" y2="-115.95" gradientTransform="translate(-199.58 -138.79) rotate(14.08) scale(1.02 -1.03) skewX(1.42)" gradientUnits="userSpaceOnUse"><stop offset="0" stop-color="#fff"/><stop offset=".51" stop-color="#1a1a1a" stop-opacity=".1"/><stop offset=".87" stop-color="#fff"/></linearGradient></defs><g id="c"><g><path d="M47.19,23.84c-2.41,3.39-6.92,9.17-14.51,13.77-7.64,4.78-14.92,6.38-18.98,6.89L.89,23.8c-2.25-3.59-.07-8.85,4.75-11.88L21.77,1.97c4.83-3.02,10.47-2.5,12.72,1.09l12.7,20.78Z" fill="url(#d)"/><g><path d="M37,73.5c-5.73-9.14-11.45-18.29-17.18-27.43l25.13-15.74,9.9,15.8,3.04-4.66c-3.62-5.86-7.25-11.74-10.88-17.59-4.59,1.02-11.46,3.11-18.78,7.69-6.9,4.32-11.59,9.23-14.49,12.77,6.85,11.08,13.71,22.19,20.57,33.28l2.69-4.12Z" fill="#f2f2f2"/><path d="M49.92,94.12c-.88-.01-1.78-.02-2.69-.04-.91,.02-1.82,.03-2.72,.03,2.64,4.26,5.27,8.52,7.9,12.79,1.19-1.23,2.31-2.41,3.32-3.5-1.94-3.09-3.87-6.18-5.81-9.27Z" fill="#f2f2f2"/><path d="M91.71,104.98l32.41,51.74c-3.45,2.78-7.46,5.71-12.07,8.6-4.63,2.9-9.04,5.24-13.05,7.14-5.86-9.35-11.71-18.7-17.57-28.05-1.3,.92-2.65,1.88-4.04,2.87,6.65,10.75,13.3,21.52,19.94,32.26,5.5-2.77,11.36-6,17.45-9.76,5.79-3.58,11.06-7.19,15.81-10.7-11.77-19.04-23.55-38.1-35.34-57.17l-3.54,3.07Z" fill="#f2f2f2"/></g><path d="M104.71,25.24c-5.38-1.78-16.72-2.83-16.72-2.83,0,0-2.16-.21-4.08,.68-2.19,.81-3.68,3.2-3.68,3.2l-40.77,62.53s-1.86,2.96-.63,4.11c.93,.95,4.05,1.28,4.05,1.28,0,0,5.65,.39,11.03,.26,4.98,.11,9.52-.07,10.35,1.38,.81,1.41-5.32,7.39-11.72,13.91-7.06,7.2-14.5,14.93-14.5,14.93,0,0-1.31,1.53-1.34,2.16,.19,1.47,1.59,1.77,2.36,1.99,2.76,1.05,23.95-.47,23.35,2.07,.75,1.99-6.08,7.64-13.38,15.08-9.37,9.55-19.97,20.28-19.97,20.28,0,0-1.53,1.64-1.48,2,.25,1.24,1.72,.87,1.98,.69,.47-.26,63.47-45,63.47-45,0,0,1.82-1.88,1.46-3.27-.17-.69-2.42-.77-2.42-.77l-18.61-.23s-1.83-.12-1.97-1.23,1.7-2.71,1.7-2.71l35.75-31.05s1.99-1.75,2.02-2.36c-.03-.92-2.84-1.13-2.84-1.13l-24.68-.59s-2.14-.2-2.56-.85,1.19-2.31,1.19-2.31l40.76-41.11s1.4-1.44,1.48-2.09c.19-1.07-.37-1.47-.37-1.47,0,0-12.91-6.08-19.23-7.54Z" fill="#fff" fill-rule="evenodd"/></g></g></svg>